<svg id="图层_1" data-name="图层 1" xmlns="http://www.w3.org/2000/svg" viewBox="0 0 1006.85 1006.84"><defs><style>.cls-1,.cls-2{fill:#144399;}.cls-1{fill-rule:evenodd;}</style></defs><path class="cls-1" d="M594,1230.34c-3.43,1.55-5.18,5.19-8.32,7.27-2.17-1.67-4.29-3.17-6.25-4.85s-2.13-2.88.07-4.37c3.13-2.08,6.52-3.74,9.84-5.55a8.48,8.48,0,0,1,1.83-.65c5.76-1.5,7.42-5.87,8-11.13a75,75,0,0,1,6.37-23.59c1.87-4,5.1-6.53,9.87-6.32,2.74.14,3.19.54,3.25,3.2a12.19,12.19,0,0,1,0,2.34c-.51,3.36.63,5.92,2.92,8.48a51.39,51.39,0,0,1,6,9.07c2.11,3.66,2,5.86-1.17,8.73s-6.33,5.68-10,7.33c-4.8,2.11-6,6.11-6.68,10.22-.89,5.5-.88,11.13-1.21,16.7a12.59,12.59,0,0,0,.26,2.48c.46.23.68.45.9.43,6-.63,9.57,3.18,13,7.26,2.77,3.28,5.53,6.55,8.39,9.74a28,28,0,0,1,6,9.95c1.22,3.75-.21,6.68-2.6,9.25-1.74,1.91-2.89,1.83-5.17.44-3.09-1.93-6.27-3.72-9.26-5.79a22.17,22.17,0,0,1-3.77-3.79c-1.86-2.16-3.49-4.52-5.47-6.55a2.54,2.54,0,0,0-4.51,2.08c0,4.49-.44,9,1.35,13.45a23,23,0,0,1,1.9,11.07c-.55,5.24-2.79,6.45-7.73,4.65a9,9,0,0,1-6-6.66,22,22,0,0,0-2.13-5.83c-2.37-4.13-4.41-8.3-3.83-13.06a4.39,4.39,0,0,0-5-.42c-3,1.53-6,3.15-8.81,5a7.76,7.76,0,0,1-7.2,1c-.88-6.75-1.2-13.6-3.93-19.9-4.32,1.16-5.21,2.16-5.14,6.11.19,9.51.47,19,.68,28.47,0,1-.09,2-.15,3.12-2.65.55-4.26-.81-5.58-2.4a14,14,0,0,1-3.75-9.18c0-4.71.14-9.41.15-14.11a22,22,0,0,0-.4-3c-3.34,1.86-6.4,3.24-8.55,5.94a12.36,12.36,0,0,1-8,4.39,5.32,5.32,0,0,1-5.66-2.59c-2.7-4-3.19-8.46-2.89-13.09a2.43,2.43,0,0,1,.85-1.67c6.25-4,9.33-10.42,13.25-16.21,4.48-6.56,8.92-13.15,13.25-19.79,1.27-2,3.33-3.81,2.23-7.18l-4.47,2.29c-1.51.78-3.07,1.48-4.49,2.37a43.32,43.32,0,0,0-4.7,3.49c-2.83,2.38-5.85,2.88-8.88.8a21.44,21.44,0,0,1-5.4-5c-2.21-3.12-.74-5.36,3-5.69a57.59,57.59,0,0,0,9.46-1.79c4.9-1.3,9.7-3,14.62-4.25a5.33,5.33,0,0,0,4.29-4.36,114.48,114.48,0,0,1,9.68-25.49c2.73-5.06,5.9-9.84,10.45-13.53,2.45-2,2.9-2,5.26.06a22.91,22.91,0,0,1,7.67,16.2c.81,13.9-7.57,23.44-20,28a25.84,25.84,0,0,0-4.64,2c-3.66,2.3-4.92,6-5,10-.19,5.48-.09,11-.27,16.44-.09,2.84-.59,5.65-.79,8.49-.13,1.77,0,3.58,0,5.37a7.42,7.42,0,0,0,6.37-2.31c1.72-1.65,3.37-2.59,5.85-2.4a5,5,0,0,0,3.39-1.43c5.71-5.7,11.34-11.51,17-17.31a12.81,12.81,0,0,0,1.2-1.88l-.59-.61m-27.51-20.28c2.34-1.78,4-2.89,5.57-4.23a42.46,42.46,0,0,0,11.7-15.33,9.51,9.51,0,0,0-1.52-10.53c-1.37-1.65-2.36-1.74-3.88-.25a25.43,25.43,0,0,0-2.81,3.22c-5.13,7.06-7.25,15.39-9.66,23.58-.22.73.26,1.65.6,3.54m-12.68,42.19c-3.48,2-6.56,7.18-6.22,10.37,4.08-2.18,6.1-5.37,6.22-10.37" transform="translate(-153.93 -360.58)"/><path class="cls-1" d="M915.19,1090.37a22.56,22.56,0,0,0-2.71-.18,4.9,4.9,0,0,0-4.83,5.76,13.24,13.24,0,0,1-3.49,11.17c-5.91,6.24-8,14.1-9.56,22.22-.7,3.73-1.53,7.42-.12,11.15.44,1.13,1,2.24,1.72,3.89a16.83,16.83,0,0,0,1.72-2.22c3.41-7.32,6.76-14.67,10.22-22a13.35,13.35,0,0,1,5.18-5.72A9.28,9.28,0,0,1,927,1120a56.94,56.94,0,0,0,3.83,9.74c2.53,4.9,3.06,10.15,3.58,15.46.12,1.55-.07,3.14-.1,4.7-.06,3.82,2.38,6.41,6.22,6,3.56-.33,6.85-1.5,8.61-5.13,1.31-2.71,2.88-5.27,4.18-8,3.36-6.94,9.07-11,16.25-13,1.76-.5,3.73-.23,6.3-.34-.68,1.41-.85,2.34-1.42,2.86-2.48,2.34-3.81,4.86-2.19,8.32.85,1.88-.43,3.2-1.68,4.42-3.93,3.82-7.88,7.61-11.81,11.44-.72.71-1.38,1.5-2.34,2.55,2.54,3,5,5.85,7.4,8.68,1,1.2,2.1,2.32,3.17,3.47,6.33,6.85,6.17,13.94,0,21.31-3.11,3.68-6.16,7.42-9.28,11.08-1.59,1.88-3.28,3.69-5,5.49a3,3,0,0,1-3.85.67,12.4,12.4,0,0,0-8.76-.13,25.57,25.57,0,0,1-6.82,1.41c-3.27.09-4.19-1.72-2.49-4.44a24.14,24.14,0,0,1,3.11-4c4.38-4.32,8.83-8.53,13.24-12.77,2.86-2.73,5.4-5.61,6.58-9.53,1.1-3.76.29-7-3.18-10.07-2.21,2.69-4.41,5.4-6.68,8-3.45,4.07-6.8,8.25-10.5,12.08a32.15,32.15,0,0,0-6.87,11.67c-.45,1.23-.77,2.49-1.33,3.67-.9,1.88-2.31,3.1-4.61,2.93-2-.12-3.92,0-5.86-.12-2.47-.21-3.2-1.08-3.11-3.55.11-2.93,1.87-5.16,3.56-7.24,6.57-8.09,13.3-16,20-24.07,1.41-1.71,2.76-3.49,4-5.32,1-1.35,1.72-2.9.55-5-1.55.84-3,1.71-4.45,2.4-3.38,1.55-5.49.55-6.46-3a10.79,10.79,0,0,1-.6-3.07,56.4,56.4,0,0,0-1.94-13.76c-1-4.39-1.19-9-2.13-13.4a26.55,26.55,0,0,0-3-8.34c-2.54-4.15-7.35-3.89-9.69.35a24.16,24.16,0,0,0-2.52,6.5c-1,4.4-1.64,8.89-2.47,13.33-.26,1.39-.77,2.74-1.1,4.12-1,4.28-2.16,8.53-3,12.84a7.5,7.5,0,0,0,2.1,6.8c.71.76,1.61,1.38,2.24,2.18,1.22,1.59,2.16,3.29,1.19,5.4a5.46,5.46,0,0,1-4.81,3.51,47.4,47.4,0,0,1-14.72-1.42c-4.38-1.22-6-3.87-6.09-8.33,0-2.29-.91-4.56-1-6.88-.24-7.89-2.46-15.65-1.75-23.64.21-2.27-1.33-3.26-3.59-2.55a24.1,24.1,0,0,0-3.53,1.66c-.81.41-1.52,1.05-2.35,1.4-6.56,2.84-5.45,3.5-11.43-.9a61.7,61.7,0,0,0-6.92-4.33,8.26,8.26,0,0,1-4.58-5.9,46.18,46.18,0,0,0-3.31-8.7c-1.25-2.78-1-4.29,1.51-5.94a7.08,7.08,0,0,1,8.37.49c1.33,1,2.63,2.31,4.15,2.85,1.33.48,3.35.6,4.37-.12a4.72,4.72,0,0,0,1.86-5.17c-1.81-7.17-1.55-8,4.87-11.41,4.89-2.58,7.71-6.86,10.32-11.41.85-1.45,1.49-3,2.23-4.57,2.12-4.3,5.31-7.35,10.07-8.54a8,8,0,0,0,2.63-.73c6.74-4.53,14.19-1.91,21.35-2.23a8.59,8.59,0,0,1,4.32,1.64c2.5,1.5,2.83,3.24,1.31,5.87-1.87,3.24-3.82,6.42-6,10m-33.83,38.74a15.86,15.86,0,0,0,.61-1.77c.74-4.59,1.54-9.19,2.12-13.79.33-2.53-.91-3.78-3.55-4a55.43,55.43,0,0,1-7.31-.6c-3.46-.69-5.29.41-5.23,4,0,2.28.85,4.55,1,6.85.24,3.6,2.43,5.65,5.4,7a73,73,0,0,0,7,2.33" transform="translate(-153.93 -360.58)"/><path class="cls-1" d="M764.89,1219.82c2.09-1.24,3.59-2,4.93-3,2.75-2,5.39-4.11,8.1-6.16,3.21-2.43,3.3-3.2.76-6.2a33,33,0,0,1-1.95-2.8,8.31,8.31,0,0,1,6.75-1.3,24.18,24.18,0,0,0,8.53-.33c4.17-.72,8.38-.93,11.84,2.21a23.14,23.14,0,0,1,2.3,3c-5.34,2.71-10.24,5.1-15,7.67-5.84,3.12-11.61,6.42-17.4,9.7a31.51,31.51,0,0,0-3.23,2.18c-4.11,3-6.34,6.64-5.31,12.05.88,4.59.51,9.38,2.44,13.79,1,2.32,2.16,4.27,5.08,4.79,9.08,1.6,18.12,3.47,27.19,5.08a10.21,10.21,0,0,0,5.36-.21c8.32-3.35,15.57-.66,22.51,3.73a19,19,0,0,1,4.58,4.18c2.39,3,1.76,5-1.72,6.69-.81.38-1.65.78-2.49,1.13a7.62,7.62,0,0,0-4.76,5.78,10.89,10.89,0,0,1-.55,2.25c-1.16,2.68-2.85,3.57-5.65,2.55a5.86,5.86,0,0,0-4.85.21,14.2,14.2,0,0,1-15.74-1.85c-6.2-5-12.08-10.35-18.15-15.5-2.33-2-4.33-4.43-7.23-5.75-1.37,1.1-.78,2.24-.3,3.25a16.57,16.57,0,0,1,1.06,9.54c-.23,1.54.1,3.14-.06,4.68a42.11,42.11,0,0,1-1.21,8.42c-1.78,5.78-8.79,8.6-14.38,5.82a11.79,11.79,0,0,0-7-1.43,8.89,8.89,0,0,1-4.78-1.14c-4.23-2.24-8.17-5.14-13.29-5.09-.55,0-1.08-.62-1.65-.91a23.32,23.32,0,0,0-4.12-1.93c-3.07-.8-4.59-2.65-3.58-5.64a19.82,19.82,0,0,1,3.46-5.49,7.05,7.05,0,0,1,2.93-1.91c7.37-2.69,9.66-9,11.28-15.73.63-2.48.46-5.13.68-7.7.23-2.93-2.05-3.53-4.16-2.14-1.31.84-2.59,1.76-3.85,2.67-.85.59-1.64,1.3-2.54,1.83-2.18,1.33-2.77,1.24-4-.95a83.31,83.31,0,0,1-3.9-7.65c-1.09-2.58-.56-3.75,2-4.94,3.18-1.48,6.4-2.91,9.64-4.24,5.88-2.41,8.05-5.9,7.45-12.06-1.05-10.4-2.59-20.77-2.91-31.18-.3-9.51-1.94-18.89-2-28.42a14.7,14.7,0,0,1,1.13-4.85c.55-1.43,1.46-2.76,2.16-4.16a6.77,6.77,0,0,1,11.51-1,10.73,10.73,0,0,1,2.08,5.7c0,5,1.26,9.65,2.4,14.43,1,4.15.75,8.57,1.5,12.79,1,5.6,2.41,11.13,3.67,16.66.76,3.29,1.54,6.56,2.31,9.83.67,2.74,1.36,5.47,2.19,9" transform="translate(-153.93 -360.58)"/><path class="cls-1" d="M452,1093c1.92,1.43,3.08,2.22,4.14,3.11,1.33,1.07,2.59,2.2,3.84,3.35,2.39,2.16,4.7,3.52,7.95,1.24,1.4-1,3.29-.49,4.76.65,2.28,1.75,4.56,3.3,7.56,3.81,2.26.4,2.83,2.54,1.5,4.57-2,2.91-4.11,5.7-6,8.67-2.12,3.39-1.59,4.39,2.3,5.3a41.08,41.08,0,0,1,13.53,5.95,16.1,16.1,0,0,1,2.12,2.16c-2.14,3.57-4.72,5.51-8.73,6.21-5,.84-10.18.48-14.84,2.91a5.19,5.19,0,0,1-2.65,0,65.56,65.56,0,0,0-6.49-1c-3.4-.15-3.4,0-5.72,3.48a56.63,56.63,0,0,0,11.06,15.26,27.18,27.18,0,0,1,3,3c1.07,1.27.78,2.61-.77,3.13-3.79,1.27-7.63,2.42-11.49,3.41-.92.25-2-.36-3.06-.48A52.47,52.47,0,0,0,446,1167c-5.53.26-10.87-.12-16.08-2.22a23.42,23.42,0,0,0-15.33-.58,14.79,14.79,0,0,1-3.45.55c-3.44.14-4.27-.78-4-4.29.16-2.34-.82-3.84-3.29-4.59-3.21-1-6.49-1.73-9.74-2.68a23,23,0,0,1-3.63-1.42,5.9,5.9,0,0,1-3.51-5.62c-.08-3.93-.28-7.81-.33-11.73s4.55-6.83,8-5.12c5.34,2.67,10.67,5.38,15.95,8.19,1.68.91,2.92.74,4.12-.68a20.78,20.78,0,0,0,5.24-10.33c.42-2.57-1.12-4.42-2.71-6.19a35.73,35.73,0,0,1-7.3-11.47c-1-2.72-2.17-5.47-1-8.6,1.3-3.41,4.58-5.41,8-4.23,3.71,1.28,7.31,2.73,9.76,6.14a15.78,15.78,0,0,0,3.78,3.35c4,2.83,6.94,2.68,10.54-.59,2.9-2.63,5.67-5.42,8.37-8.23A31.66,31.66,0,0,0,452,1093" transform="translate(-153.93 -360.58)"/><path class="cls-1" d="M349.09,802.63c-.77,3.4-1.41,6.55-2.21,9.67-.38,1.48-1.48,1.36-2.81,1-4.36-1.15-93.59-22.85-102.26-25.05-2.23-.56-2.63-1.14-2.11-3.29.6-2.52,1.42-5,2.06-7.5.38-1.55,1.31-2.05,2.81-2.15,5.94-.4,72-7,72-7s-64.13-16.45-68.28-17.4a40.58,40.58,0,0,1,2.64-10.38c.18-.44,1.36-.81,1.95-.66,7.54,1.82,98.34,24.15,105.13,25.9-.35,1.76-1.65,7.7-1.87,9-.47,2.44-1,3-3.57,3.27-4.38.43-70.19,7.4-70.19,7.4l66.71,17.23" transform="translate(-153.93 -360.58)"/><path class="cls-1" d="M419.89,658.18c-2.34,2.59-4.46,5-6.68,7.32-1.07,1.12-2,.49-3-.48-3.24-3.17-70.25-65.95-76.7-72.11-1.67-1.6-1.75-2.28-.22-3.91,1.75-1.91,3.69-3.65,5.48-5.53,1.09-1.15,2.16-1.13,3.51-.47,5.37,2.58,66.15,29.3,66.15,29.3s-47.75-45.87-50.91-48.75a40.91,40.91,0,0,1,7.41-7.73c.37-.31,1.58,0,2,.38,5.68,5.29,73.76,69.4,78.8,74.25-1.18,1.37-5.21,5.92-6.05,6.91-1.6,1.9-2.36,2.13-4.72,1.09-4-1.79-64.75-28.09-64.75-28.09l49.62,47.82" transform="translate(-153.93 -360.58)"/><path class="cls-1" d="M970,869.08c.15-3.47.22-6.69.45-9.89.11-1.54,1.21-1.63,2.59-1.53,4.51.37,96.17,5.82,105.08,6.44,2.29.17,2.78.65,2.67,2.87-.15,2.59-.51,5.17-.68,7.74a2.67,2.67,0,0,1-2.4,2.62c-5.79,1.45-69.6,19.75-69.6,19.75s66,4.75,70.3,4.95a42.4,42.4,0,0,1-.74,10.69,2.19,2.19,0,0,1-1.82,1c-7.74-.44-101.08-6.24-108.06-6.74,0-1.8.24-7.87.24-9.18,0-2.48.46-3.16,2.94-3.85,4.23-1.19,67.73-19.79,67.73-19.79L970,869.08" transform="translate(-153.93 -360.58)"/><path class="cls-1" d="M1059.8,733.14s2.22,6.54,3.08,9.36c.6,2-.23,3.16-2.79,3.82-4.73,1.3-38.69,9.92-38.69,9.92l6.28,23.83,38.43-10c2.49-.64,3.4-.31,4.22,2.07a71.57,71.57,0,0,1,1.89,7.57c.3,1.38-.45,2.2-1.8,2.55-6.15,1.56-98.06,25.6-102.65,26.93-1.48.43-2.22-.16-2.55-1.57-.61-2.51-1.28-5-1.91-7.54-.55-2.32-.25-2.94,2.12-3.6,6.76-1.86,43.76-11.62,43.76-11.62l-6.33-23.65s-38.82,10-42.44,11c-3.23.88-4.22.3-5.08-2.91-.67-2.5-1.27-5-2-8,1.86-.67,106.48-28.24,106.48-28.24" transform="translate(-153.93 -360.58)"/><path class="cls-1" d="M524.6,481.49c2.39,7.43,4.73,14.68,7.21,22.33,10-2.57,19.35-6.22,29.27-9,1.92,5.93,3.76,11.56,5.72,17.61-1.38.63-29.11,10.15-29.11,10.15l8.78,27.51s22.1-6.92,29.62-9.45c1.59-.51,3.07-.27,3.59,1.34,1.7,5.17,3.19,10.39,4.74,15.61,0,.09-.1.21-.35.72-4.62,1.48-31.8,10.19-40.46,13-3,.95-3.6.64-4.56-2.36q-9.06-28.65-18.13-57.28c-4.2-13.26-13.08-41-13.22-41.64-.74-2.69-.39-3.42,2.33-4.33,3.57-1.19,28.13-8.86,36.82-11.61,3.23-1,3.69-.83,4.77,2.44,1.31,3.95,2.61,7.92,3.83,11.89.74,2.37.39,2.81-2,3.57-9.05,2.85-28.2,9.21-28.84,9.58" transform="translate(-153.93 -360.58)"/><path class="cls-1" d="M949.83,977.63c1.24-4,2.28-7.53,3.59-11a2.89,2.89,0,0,1,2.38-1.32l23.31.88s2.39-8.31,3.58-12.53a68.24,68.24,0,0,1,2.21-7.42c.89-2.08.36-3.19-1.44-4.13-3.12-1.57-15-7.57-17.76-9s-2.92-1.84-2-4.89c.58-1.85,2.6-8.1,3.26-9.52,5.71,3,93.21,49.13,96.77,51.07,2.72,1.46,2.71,1.61,1.81,4.51-.78,2.6-2,7.11-2,7.11s-.69,3.19-3.75,3.19c-2.81-.48-105.26-6.27-110-6.91m48.8-9.83,38,2.36-33.34-17.83Z" transform="translate(-153.93 -360.58)"/><path class="cls-1" d="M437.45,501c4.44,5.24,46.75,56.88,51.49,61.32.22-.13.43-.29.63-.43-1.18-3.65-10.7-32.14-14.23-42.75-3.26-9.74-6.45-19.52-9.7-29.25-1.18-3.5-1-4.1,2.17-6,1.81-1,3.67-2,5.51-3,2.44-1.33,2.93-1.11,3.77,1.58q4.11,13,8.21,26.07c3.88,12.38,19.79,62.45,23.87,75.08,1,3.09.95,3.3-1.91,5-2.23,1.33-4.55,2.53-6.77,3.91a2.51,2.51,0,0,1-3.71-.68c-6.42-7.74-67.73-80.26-69.57-82.46-1.27-1.54-1.12-2.38.68-3.37,3-1.61,6-3.13,9.56-5" transform="translate(-153.93 -360.58)"/><path class="cls-1" d="M867.53,496.08c.72.09,1.17,0,1.45.2,3.15,2.08,6.25,4.24,9.4,6.33,1.42.94,1.65,2,1.17,3.68-3.63,12.61-10.72,39.13-10.72,40.18.88-.42,22.41-17,32.53-24.94,1.18-.94,2.2-2,3.78-.92,3.14,2.08,6.29,4.16,9.41,6.28.27.19.34.67.73,1.51-1.2.84-35.67,26.34-51.52,38.42-2.5,1.92-4.35,4.79-6.15,7.44-6.91,10.14-21.45,31.7-22.23,32.62-3-2-5.89-4-8.71-6-1.34-1-1-2.09-.17-3.37,7.32-10.77,14.53-21.64,21.92-32.37a25,25,0,0,0,3.78-8.5c2.37-9.68,12.52-49.85,15.33-60.55" transform="translate(-153.93 -360.58)"/><path class="cls-1" d="M432.2,1186.25a21,21,0,0,1-14.6,9.57c-3.75.67-7.41,1.71-11.12,2.58-.07.33-.14.66-.2,1a26.44,26.44,0,0,0,3,2c3.48,1.77,7,3.41,10.52,5.17a30.64,30.64,0,0,1,4,2.46c2.39,1.75,2.23,2.72-.45,4.09-1.62.84-3.24,1.71-4.76,2.7-1.9,1.25-3.2,2.71-3.17,5.39,0,3.46-2.15,4.59-5.25,3.06-4.33-2.13-8.81-4-12.88-6.56-4.28-2.68-8.18-6-12.24-9-1.05-.76-2.15-1.48-3.2-2.28a7.55,7.55,0,0,1-.43-11.83,6.4,6.4,0,0,1,1.87-1.36c6.58-2.3,13.05-5.64,20.31-2.64,2.13.89,4.07-.14,6.06-.71,4.67-1.34,5.93-1.94,8.77-4.63-2.84-2.44-6.2-3.6-9.55-4.88-5-1.94-10.26-1.36-15.44-1.43-2.35,0-4.69,0-7,0-3.69-.11-6.2,1.66-7.84,4.76a23.73,23.73,0,0,0-1.71,4.37,26,26,0,0,1-8.32,12.49c-1.73,1.52-3.75,2.63-6.07,1.69a9.1,9.1,0,0,1-5.52-6.21,4.71,4.71,0,0,1,.45-2.61,21.78,21.78,0,0,0,.89-14.49c-.84-2.83,2.4-6.66,5.83-7,6.32-.62,11.68-3.31,16.55-7.17,1.43-1.14,2.8-2.39,4.29-3.42,3.33-2.25,6.58-.69,6.92,3.21.29,3.08.66,3.49,3.59,4,6,1.11,12,2.2,17.89,3.42a11.11,11.11,0,0,1,4.27,1.78c4.66,3.58,9.18,7.33,13.73,11a8.19,8.19,0,0,1,.9,1.46" transform="translate(-153.93 -360.58)"/><path class="cls-1" d="M818.94,493.15c-4.15,10-26.38,63.27-33.6,80.41-1.62,3.86-2.25,4-6.16,2.26-2.24-1-4.51-2-7.13-3.08.77-2.13,23.39-56.28,34-81.47,1.13-2.66.87-3.24-1.9-4.39-3.61-1.5-7.24-2.95-10.78-4.59-2.67-1.25-2.76-1.61-1.73-4.16,1.5-3.73,3.05-7.46,4.67-11.14,1.42-3.2,1.73-3.33,5-2,8.53,3.54,33.93,14.34,38.14,16.13,3.78,1.58,3.74,1.55,2.12,5.22-1.46,3.35-2.75,6.76-4.17,10.13s-1.8,3.57-5.19,2.16c-4.31-1.8-8.61-3.58-13.27-5.51" transform="translate(-153.93 -360.58)"/><path class="cls-1" d="M361.06,963.41c.16,6.86-3.75,11-8.06,14.53s-17.57,9.19-19.05,9.71c-2.77,1-2.95.91-4.35-1.5-1.06-1.79-2-3.65-3-5.52-1.39-2.7-1.09-3.19,1.61-4.27s5.52-2.33,8.22-3.62c1.05-.49,10.52-4.42,8.72-9.88-2.14-6.47-12-2.63-13.08-2.32-11.49,3.29-75,22.51-78,23.44-3.53,1.1-3.53,1.12-4.62-2.24-.64-2-1.32-3.94-2-5.9-.75-2.3-.48-3.06,1.85-3.8,5.94-1.88,68.83-21.14,76.85-23.37,6.22-1.75,13.15-3.15,19.45-2.49,15,3.23,15.33,16.44,15.4,17.23" transform="translate(-153.93 -360.58)"/><path class="cls-1" d="M644.63,735.45a8.67,8.67,0,0,0-2.32-.72c-40.83,0-121,0-121,0s0,110.38,0,120c0,2-1.26,2.82-3.16,2.71-4.3-.23-10.9-.37-15.19-.77-2.21,0-2.17-3.46-2.16-4.23.11-44.79-.13-89.55,0-134.33,0-.65,0-1.3,0-2,0-1.76,1-2.58,2.76-2.5,1.56.06,3.13,0,4.7,0H811c4.15,0,4.37.23,4.37,4.44v82.66c0,.64,0,1.3,0,1.94a2.19,2.19,0,0,1-2.4,2.46q-7.62,0-15.28,0c-1.64,0-2.33-.9-2.34-2.45,0-.77,0-1.56,0-2.36q0-30.74,0-61.49c0-4.06-.09-4.16-4.17-4.16H669.43c-4,0-4.16.16-4.16,4.2q0,58.94,0,117.9c0,3.88,0,3.92-3.91,3.93q-6.25,0-12.52,0c-4,0-4,0-4-4.24V844.35q0-52.85,0-105.75c0-1-.14-2-.2-3.15" transform="translate(-153.93 -360.58)"/><path class="cls-1" d="M451.39,851.19c2.08,1.22,3.8,2.36,5.63,3.3a43.94,43.94,0,0,0,27.71,3.92c2.67-.46,5.33-.94,8-1.46,2.16-.41,3.29.9,4.53,2.4,3.9,4.7,7.68,9.55,12,13.9,7.92,8,17.36,14.11,27.32,19.37a157.23,157.23,0,0,0,26.8,11.63,74,74,0,0,0,28.49,2.9c4.16-.34,8.36-1.94,12.24-3.62,17.71-7.6,33.72-18.15,49.38-29.19,14.27-10.05,28.22-20.55,42.18-31,6.47-4.85,12.68-10,18.86-15.19,4.58-3.86,9.6-6,15.7-5.82a12.58,12.58,0,0,1,11.89,14.63,6.92,6.92,0,0,1-1.88,3.3c-12.37,12.89-63.44,66.91-76.81,80.85-5.39,5.63-10.93,11.17-16.47,16.72-3.68,3.7-8.41,5.71-13.17,7.44a53.89,53.89,0,0,1-24.62,2.63,63.69,63.69,0,0,1-25.34-8.28c-20.11-11.8-40.6-23-60.7-34.78a769,769,0,0,1-66.69-43.68,33.37,33.37,0,0,1-4.83-4.53c-1.36-1.47-1.57-3.19-.17-5.41" transform="translate(-153.93 -360.58)"/><path class="cls-1" d="M665.27,1020.38H644.79s0-32.32,0-46.93c0-3.45.26-3.67,3.85-3.7,4.3,0,8.6,0,12.91,0,3.6,0,3.74.12,3.74,3.74,0,12.9,0,46.87,0,46.87" transform="translate(-153.93 -360.58)"/><path class="cls-1" d="M941.39,614.78a16.89,16.89,0,1,1-16.89-16.89,16.88,16.88,0,0,1,16.89,16.89" transform="translate(-153.93 -360.58)"/><path class="cls-1" d="M811,939.62H799.59c-4.65,0-4.29,5.53-4.29,5.53l0,0c-2.92,72.73-63.61,129.53-137.32,129.53-76.78,0-139-62.05-139-138.61,0-1.34,0-16.66,0-19.52a2.61,2.61,0,0,0-2.75-2.73H503.6c-1.19.21-2.88,1.19-2.88,5.25v17c0,86.68,70.28,157,157.23,157,84.39,0,153.18-66.24,157.12-149.4,0-3.92-4.05-4-4.05-4" transform="translate(-153.93 -360.58)"/><path class="cls-2" d="M657.36,360.58c-278,0-503.43,225.39-503.43,503.43s225.39,503.41,503.43,503.41S1160.78,1142,1160.78,864,935.38,360.58,657.36,360.58m0,972.77C398.14,1333.35,188,1123.21,188,864S398.14,394.65,657.36,394.65,1126.7,604.79,1126.7,864s-210.13,469.34-469.34,469.34" transform="translate(-153.93 -360.58)"/><path class="cls-2" d="M657.36,579.76c-157,0-284.25,127.25-284.25,284.23s127.26,284.24,284.25,284.24S941.58,1021,941.58,864,814.34,579.76,657.36,579.76m0,537.9c-140.1,0-253.66-113.56-253.66-253.67S517.26,610.35,657.36,610.35,911,723.91,911,864s-113.56,253.67-253.65,253.67" transform="translate(-153.93 -360.58)"/><path class="cls-2" d="M714.94,446.8c-3.42-4.28-8.46-6.69-15-7.17-14.94-1.07-23.26,8.5-24.81,28.43-1.55,20.11,5.23,31.35,20.18,33.43,9.55,1.14,13.79,7.26,13,18.66s-5.93,16.67-15.54,16c-4.36-.32-7.65-1.84-9.77-4.51-2.51-3.15-3.52-8.07-3-14.59l.07-.87-10.9-.77-.05.81c-1,12.73.92,22.27,5.73,28.32,3.8,4.79,9.44,7.49,16.77,8a31.39,31.39,0,0,0,3.34.06c14.6-.43,22.92-11.44,24.73-32.72,1.21-21.69-6.55-33.29-23-34.49-7.89-1.48-11.35-7.12-10.57-17.22.7-9.15,4.21-13.69,10.81-13.9a14.47,14.47,0,0,1,2,.08c3.44.19,6.06,1.37,7.8,3.53,2.24,2.76,3.15,7.27,2.7,13.38l0,.87,10.82.79.06-.84c.81-11.37-1-19.88-5.27-25.28" transform="translate(-153.93 -360.58)"/><path class="cls-1" d="M349.1,922.12a2,2,0,0,1-1.61,2.26L242,942.72a1.94,1.94,0,0,1-2.25-1.6l-1.37-8.18a1.94,1.94,0,0,1,1.6-2.25l105.54-18.35a2,2,0,0,1,2.25,1.6Z" transform="translate(-153.93 -360.58)"/><path class="cls-1" d="M344.6,838.7a2,2,0,0,1-2.12,1.77l-106.74-9.31A2,2,0,0,1,234,829l.78-8.27a2,2,0,0,1,2.12-1.77l106.72,9.32a2,2,0,0,1,1.76,2.13Z" transform="translate(-153.93 -360.58)"/><path class="cls-1" d="M462.65,618.43a2,2,0,0,1-2.74-.37l-65.55-84.73a2,2,0,0,1,.37-2.74l6.6-5a2,2,0,0,1,2.74.36l65.54,84.74a2,2,0,0,1-.36,2.74Z" transform="translate(-153.93 -360.58)"/><path class="cls-1" d="M730.69,559.91a2,2,0,0,1-1.39-2.39l27.24-103.61a1.94,1.94,0,0,1,2.4-1.38l8,2.15a2,2,0,0,1,1.4,2.39L741.1,560.69a2,2,0,0,1-2.41,1.38Z" transform="translate(-153.93 -360.58)"/><path class="cls-1" d="M967.62,829.17A2,2,0,0,1,969.4,827L1076,816.91a2,2,0,0,1,2.13,1.78l.74,8.24a2,2,0,0,1-1.77,2.13L970.48,839.21a2,2,0,0,1-2.12-1.79Z" transform="translate(-153.93 -360.58)"/><path class="cls-1" d="M344.28,895a2,2,0,0,1-1.87,2l-105.34,4a1.94,1.94,0,0,1-2-1.9l-.26-8.29a1.94,1.94,0,0,1,1.86-2l105.33-4a2,2,0,0,1,2,1.9Z" transform="translate(-153.93 -360.58)"/><path class="cls-1" d="M344.15,894c-.14-5.88-1-31.37-1.28-38.27a2.34,2.34,0,0,0-2.71-2.57c-4.57.14-9.12.28-13.67.5-2.25.1-2.53.56-2.39,3,.12,2,1,40.91,1,40.91a117,117,0,0,0,19-2.56Z" transform="translate(-153.93 -360.58)"/><path class="cls-1" d="M381.93,670.88c-6.82-5.53-61-38.78-72.72-45.91h0c-2.06-1.25-2.84-.38-3-.08l-5.78,9.29s66.87,41.67,70.91,44.94c2.57,2.09,5.65,4.29,5.72,8.48.11,5.35-4.86,12.8-12.11,11.26a41.16,41.16,0,0,1-13-5.11C335,683.45,288,655.11,288,655.11s-4.06,6.22-5.76,9.24c-.73,1.33.23,1.74.73,2.32.67.76,26.28,16.44,38.27,23.53q16.32,9.66,32.93,18.78c20.58,10.57,34-2.57,36.88-8.91,1.3-2.83,7-16.12-9.09-29.19" transform="translate(-153.93 -360.58)"/><line class="cls-2" x1="370.67" y1="120.91" x2="392.54" y2="189.48"/><path class="cls-2" d="M653.44,545.88c-4.68-9.89-9.41-19.75-14.11-29.63a41.28,41.28,0,0,0-9.56-12.91c25.73-10.06,22.27-55-5.13-60.55-4.7-1-8.69-.65-13.49-.35-6.36.4-12.65,1.24-19,1.78-2.74.24-3.19.41-3.06,3.22.13,3.24,10,103,10.17,104.12.27,1.69,1.18,2.92,3.1,2.94,3.23,0,6.49.09,9.45-1.76a9.17,9.17,0,0,0,.19-1.59c-.72-7.21-4-42.86-4-42.86s9-4.35,12.48,3.93c.73,1.09,16,31.28,18.47,36.16a4.46,4.46,0,0,0,3.17,2.27l8.56-.58s4-1.33,2.73-4.19m-32.1-57.24c-2,.21-11.94,1.35-15.14,1.72-.42-2.11-2.14-25.43-2.54-27.32s.41-2.68,2-3.09h0c.76-.17,11.74-2,18.19-.62a14,14,0,0,1,4.36,2.57,15.28,15.28,0,0,1,5.14,10.48,15.85,15.85,0,0,1-2.7,10.1,14.25,14.25,0,0,1-9.31,6.17" transform="translate(-153.93 -360.58)"/><path class="cls-1" d="M1035.46,670.9a18.65,18.65,0,0,0-1.29-1.71c-10.46-11.34-37.06-5.17-37.06-5.17a136.79,136.79,0,0,0-40.49,19c-6.39,4.32-12.33,9.15-16.82,15.54-3.1,4.59-9.8,16.69-3.41,28,1.69,2.72,9.29,12,31.05,8.1,2.23-.43,4.45-.92,6.66-1.57,3.7-1.06,4.31-1.45,4.65-5.33.07-.88.53-5.87.47-7.56s-1.12-2.17-2.73-1.76c-3.14.81-13.35,4-19.73,1.56a8.14,8.14,0,0,1-5.55-6.53,13.1,13.1,0,0,1,2.25-9.65,37.74,37.74,0,0,1,9.78-9.5c11.36-7.74,23.45-14,36.75-17.75,4.22-1.16,8.73-1.61,13.08-.17a10.43,10.43,0,0,1,5.9,4.24,9.42,9.42,0,0,1,.39,10,27.41,27.41,0,0,1-7.83,9.12c-2,1.62-2.09,2.33-.28,4,2,1.82,4.2,3.5,6.27,5.31,1.34,1.16,2.51.95,3.82-.11,1.61-1.31,3.17-2.63,4.73-4,8.78-8.44,11.18-17,11.57-18.65,1.54-7.83-.63-13-2.18-15.43" transform="translate(-153.93 -360.58)"/><path class="cls-2" d="M881.08,876.85c-3.3-3.59-7.26-4.34-11.8-2.78a21.92,21.92,0,0,0-11.35,8.63c-4.72,7.15-11.42,11.64-19,15.09a84,84,0,0,1-17.25,5.48v0c-20.21,5.24-40.78,3.65-40.78,3.65-7.94-.46-12.87-7.84-11.41-14.28a34.94,34.94,0,0,1,4.23-10,89.13,89.13,0,0,1,7.39-10c12.72-15.82,28-28.3,47.07-35.8,9.12-3.57,18.49-6,28.36-6.1a5.43,5.43,0,0,0,2.93-.72c4.15-2.87,5.31-9.33.84-14.09a12.77,12.77,0,0,0-6.82-3.69,123.26,123.26,0,0,0-20.09-.81c-1.78.06-3.56.14-5.35.26-5.29.27-10.68.66-16,1.19-21.16,2.16-40.08,5.8-40.08,5.8a11.69,11.69,0,0,0-5.86,3.53c-18.23,18.68-103.8,109.34-110.37,116.94-5.34,6.21-2.35,10.6,3.85,12.71a12.74,12.74,0,0,0,3.43.55c3.12.22,6.24.4,9.36.5,6.51.24,13,.65,19.52.56s13-.69,19.45-1.06c1-.06,2.08-.2,3.1-.33,4.76-.62,9.51-1.18,14.25-1.9A150.91,150.91,0,0,0,744,947.57q15.27-3.95,30.32-8.62c11.19-3.42,22.37-6.89,33.37-10.89q20.13-7.39,39.91-15.83c8.84-3.78,17.47-8.21,25.13-14.2,3.58-2.79,7-5.85,9.33-9.91a9.8,9.8,0,0,0-1-11.27" transform="translate(-153.93 -360.58)"/><path class="cls-1" d="M815.37,899.11a1.91,1.91,0,0,1-1.91,1.9H797.27a1.91,1.91,0,0,1-1.9-1.9v-35.5a1.92,1.92,0,0,1,1.9-1.93h16.19a1.92,1.92,0,0,1,1.91,1.93Z" transform="translate(-153.93 -360.58)"/><path class="cls-2" d="M548.86,703h3.37c4.9,0,6.85-1.07,6.85-5.63V656.18c0-4.57-2-5.72-6.85-5.72h-3.37v-2.64c11.86-.87,18-3.2,21.47-7H574v56.5c0,4.56,2,5.63,6.75,5.63h2.66v2.63H548.86Z" transform="translate(-153.93 -360.58)"/><path class="cls-2" d="M596.67,696a7.23,7.23,0,0,1,7.47-7.28c3.78,0,7.17,2.33,7.17,6.89,0,2.53-1.14,4.18-3.39,5.82-.81.59-1.22,1.37-.51,1.86a8.61,8.61,0,0,0,4.61,1.06c11.15,0,15.45-12.05,16.16-27.38-2.56,2.62-6.14,4.84-12.48,4.84-11.15,0-21.58-7.94-21.58-19.5,0-12.81,12.17-21.07,24.66-21.07C634,641.22,644,652.59,644,671c0,19.32-13.61,35.82-32,35.82-9.31,0-15.35-4.65-15.35-10.87m31.51-34.37c0-10.29-2.25-18.15-9.4-18.15s-8.49,8.15-8.49,18.44c0,9.9,1.21,16.7,8.17,16.7s9.72-8.15,9.72-17" transform="translate(-153.93 -360.58)"/><path class="cls-2" d="M705.24,687.24v3.4H696v6.79c0,4.47,1.94,5.54,6.55,5.54h1.84v2.62H672.2V703h2.66c4.6,0,6.55-1.07,6.55-5.54v-6.79H653v-2.71l35-46.32H696v45.63Zm-23.83-31.36-23.63,31.36h23.63Z" transform="translate(-153.93 -360.58)"/><path class="cls-2" d="M715.93,677.24c0-19.31,13.61-35.83,32-35.83,9.31,0,15.33,4.67,15.33,10.87a7.23,7.23,0,0,1-7.47,7.29c-3.78,0-7.16-2.33-7.16-6.9,0-2.51,1.13-4.17,3.38-5.82.82-.58,1.23-1.37.52-1.83a8.31,8.31,0,0,0-4.6-1.09c-11.15,0-15.45,12.05-16.16,27.38,2.56-2.61,6.12-4.85,12.46-4.85,11.16,0,21.6,8,21.6,19.52,0,12.82-12.18,21.06-24.66,21.06-15.23,0-25.26-11.35-25.26-29.8m33.75,9.12c0-9.89-1.23-16.69-8.18-16.69s-9.71,8.16-9.71,17c0,10.29,2.25,18.17,9.4,18.17s8.49-8.17,8.49-18.46" transform="translate(-153.93 -360.58)"/></svg>